<?xml version="1.0" encoding="utf-8" ?><svg xmlns="http://www.w3.org/2000/svg" xmlns:xlink="http://www.w3.org/1999/xlink" width="1024" height="1024" viewBox="0 0 1024 1024"><defs><linearGradient id="gradient_0" gradientUnits="userSpaceOnUse" x1="256.39294" y1="456.67764" x2="254.93909" y2="133.55708"><stop offset="0" stop-color="#69A6F7"/><stop offset="1" stop-color="#CAEDF8"/></linearGradient></defs><path fill="url(#gradient_0)" transform="scale(2 2)" d="M264.769 120.404L276.34 120.379C293.987 120.339 297.427 123.545 297.465 142.476L297.457 152.545C297.963 152.607 300.33 153.066 300.756 153.157C321.226 158.291 326.507 137.446 342.234 134.932C377.975 129.219 407.288 148.178 419.59 182.549C428.978 208.709 435.949 236.222 441.446 263.413C448.462 296.859 455.362 330.261 458.993 364.285C460.254 378.475 463.46 394.061 461.154 408.217C452.812 459.44 383.794 474.731 354.317 431.631C350.818 426.516 348.383 420.923 345.486 415.478C337.395 401.014 329.322 382.338 320.226 368.871C312.238 356.643 297.151 358.743 284.595 358.76L225.561 358.746C197.944 358.649 195.444 357.567 182.324 384.151C173.045 402.953 160.384 434.193 143.964 445.854C117.681 464.413 80.1213 459.406 61.2905 432.711C46.73 412.939 50.5528 391.781 53.18 369.091C59.4918 314.405 69.3774 260.09 84.4123 207.1C96.4259 165.924 109.116 134.714 159.66 133.61C186.255 133.029 186.065 149.503 202.909 153.013C205.581 153.538 214.713 154.076 215.227 150.219C215.113 115.483 218.657 121.968 249.224 120.404C253.621 120.378 260.709 120.738 264.769 120.404Z"/><path fill="#B0D3F8" transform="scale(2 2)" d="M264.769 120.404L276.34 120.379C293.987 120.339 297.427 123.545 297.465 142.476L297.457 152.545C284.486 148.673 234.788 150.755 221.209 151.726C217.384 151.999 215.327 153.607 215.227 150.219C215.113 115.483 218.657 121.968 249.224 120.404C253.621 120.378 260.709 120.738 264.769 120.404Z"/><defs><linearGradient id="gradient_1" gradientUnits="userSpaceOnUse" x1="159.92946" y1="274.29764" x2="157.8546" y2="195.0038"><stop offset="0" stop-color="#7699EA"/><stop offset="1" stop-color="#8DBDF8"/></linearGradient></defs><path fill="url(#gradient_1)" transform="scale(2 2)" d="M157.541 194.777C169.469 193.68 172.013 203.177 172.004 212.749L171.979 221.766C179.714 221.837 189.959 219.742 196.08 225.322C200.716 229.548 200.903 239.083 196.432 243.497C192.131 247.742 186.592 247.279 181.057 247.271L171.979 247.245C172.017 258.088 174.622 273.037 160.309 274.966C147.966 275.327 146.703 266.759 146.72 256.665L146.751 247.245C139.545 247.271 128.32 248.64 122.669 243.757C117.283 239.104 116.941 230.799 122.048 225.758C126.504 221.36 131.867 221.737 137.575 221.742L146.751 221.766C146.728 211.036 144.271 198.288 157.541 194.777Z"/><path fill="#7394F7" transform="scale(2 2)" d="M278.046 273.281C302.696 271.761 268.697 316.7 234.586 291.185C230.323 287.645 225.468 278.847 231.775 275.551C237.901 272.351 240.187 276.85 244.059 280.493C251.229 286.929 264.109 284.913 271.101 279.342C273.654 277.308 275.042 274.889 278.046 273.281Z"/><path fill="#FFD166" transform="scale(2 2)" d="M350.572 255.475C355.99 254.728 361.391 256.949 364.715 261.292C368.039 265.634 368.773 271.428 366.638 276.463C364.502 281.498 359.825 284.996 354.393 285.624C346.12 286.58 338.62 280.7 337.573 272.439C336.526 264.177 342.323 256.612 350.572 255.475Z"/><path fill="#F7879A" transform="scale(2 2)" d="M350.564 186.282C358.826 185.341 366.298 191.243 367.296 199.498C368.293 207.752 362.442 215.265 354.194 216.319C345.866 217.383 338.265 211.462 337.258 203.128C336.25 194.793 342.223 187.232 350.564 186.282Z"/><path fill="#F7A896" transform="scale(2 2)" d="M314.884 221.766C327.369 218.219 345.413 242.941 318.469 249.941C298.83 254.286 293.161 223.902 314.884 221.766Z"/><path fill="#96D4B4" transform="scale(2 2)" d="M388.191 221.766C402.006 218.971 418.734 243.232 392.484 248.742C365.994 252.23 370.675 223.018 388.191 221.766Z"/><defs><linearGradient id="gradient_2" gradientUnits="userSpaceOnUse" x1="285.51886" y1="49.577" x2="275.64355" y2="116.76888"><stop offset="0" stop-color="#FFECDF"/><stop offset="1" stop-color="#B6D2FC"/></linearGradient></defs><path fill="url(#gradient_2)" transform="scale(2 2)" d="M249.224 109.587C249.108 94.9176 249.24 80.7383 262.7 71.6422C269.994 66.7129 268.266 67.6826 272.464 60.457C279.157 48.934 296.539 46.5551 305.744 56.5541C321.068 72.5283 304.818 97.1304 283.292 91.9106C277.008 90.3867 274.304 87.2269 269.933 82.816C262.064 91.6764 265.634 99.7987 264.769 110.437L264.769 120.404C260.709 120.738 253.621 120.378 249.224 120.404L249.224 109.587Z"/><path fill="#A7CAF7" transform="scale(2 2)" d="M249.224 109.587C250.202 110.904 248.528 112.057 250.415 113.055C255.061 113.227 260.397 110.288 264.245 113.894C264.924 112.879 264.105 112.401 264.769 110.437L264.769 120.404C260.709 120.738 253.621 120.378 249.224 120.404L249.224 109.587Z"/><!-- Blush cheeks --><ellipse transform="scale(2 2)" cx="190" cy="320" rx="16" ry="10" fill="#FFB5C5" opacity="0.3"/><ellipse transform="scale(2 2)" cx="315" cy="320" rx="16" ry="10" fill="#FFB5C5" opacity="0.3"/></svg>